<svg width="210mm" height="297mm" version="1.1" viewBox="0 0 210 297" xmlns="http://www.w3.org/2000/svg">
 <circle cx="37.798" cy="42.333" r=".11328" style="stroke-width:.26458;stroke:#000"/>
 <circle cx="57.452" cy="44.601" r=".11328" style="stroke-width:.26458;stroke:#000"/>
 <circle cx="105.83" cy="66.524" r=".11328" style="stroke-width:.26458;stroke:#000"/>
 <circle cx="40.821" cy="68.792" r=".11328" style="stroke-width:.26458;stroke:#000"/>
 <circle cx="106.59" cy="89.958" r=".11328" style="stroke-width:.26458;stroke:#000"/>
 <circle cx="54.429" cy="99.786" r=".7552" style="stroke-width:.26458;stroke:#000"/>
 <circle cx="120.95" cy="123.98" r=".7552" style="stroke-width:.26458;stroke:#000"/>
 <circle cx="146.65" cy="75.595" r=".7552" style="stroke-width:.26458;stroke:#000"/>
 <circle cx="86.935" cy="55.185" r=".7552" style="stroke-width:.26458;stroke:#000"/>
 <circle cx="80.887" cy="136.07" r=".7552" style="stroke-width:.26458;stroke:#000"/>
 <circle cx="109.61" cy="76.351" r=".7552" style="stroke-width:.26458;stroke:#000"/>
 <circle cx="36.286" cy="47.625" r=".7552" style="stroke-width:.26458;stroke:#000"/>
 <circle cx="41.577" cy="16.631" r=".7552" style="stroke-width:.26458;stroke:#000"/>
 <circle cx="95.25" cy="18.899" r=".7552" style="stroke-width:.26458;stroke:#000"/>
 <circle cx="167.07" cy="155.73" r=".7552" style="stroke-width:.26458;stroke:#000"/>
 <circle cx="164.8" cy="76.351" r=".7552" style="stroke-width:.26458;stroke:#000"/>
 <circle cx="65.768" cy="161.77" r=".7552" style="stroke-width:.26458;stroke:#000"/>
 <circle cx="40.065" cy="133.8" r=".7552" style="stroke-width:.26458;stroke:#000"/>
 <circle cx="38.554" cy="86.935" r=".7552" style="stroke-width:.26458;stroke:#000"/>
 <circle cx="86.179" cy="190.5" r=".7552" style="stroke-width:.26458;stroke:#000"/>
 <circle cx="105.83" cy="108.86" r=".7552" style="stroke-width:.26458;stroke:#000"/>
 <circle cx="173.11" cy="53.673" r=".7552" style="stroke-width:.26458;stroke:#000"/>
 <circle cx="143.63" cy="18.143" r=".7552" style="stroke-width:.26458;stroke:#000"/>
 <circle cx="136.83" cy="44.601" r=".7552" style="stroke-width:.26458;stroke:#000"/>
 <circle cx="160.26" cy="21.923" r=".7552" style="stroke-width:.26458;stroke:#000"/>
 <circle cx="171.6" cy="18.143" r=".7552" style="stroke-width:.26458;stroke:#000"/>
 <circle cx="159.51" cy="195.79" r=".7552" style="stroke-width:.26458;stroke:#000"/>
 <circle cx="121.71" cy="164.8" r=".7552" style="stroke-width:.26458;stroke:#000"/>
 <circle cx="124.73" cy="143.63" r=".7552" style="stroke-width:.26458;stroke:#000"/>
 <circle cx="186.72" cy="114.15" r=".7552" style="stroke-width:.26458;stroke:#000"/>
 <circle cx="187.48" cy="223.76" r=".7552" style="stroke-width:.26458;stroke:#000"/>
 <circle cx="20.411" cy="241.15" r=".7552" style="stroke-width:.26458;stroke:#000"/>
 <circle cx="30.994" cy="186.72" r=".7552" style="stroke-width:.26458;stroke:#000"/>
 <circle cx="77.107" cy="256.27" r=".7552" style="stroke-width:.26458;stroke:#000"/>
 <circle cx="133.05" cy="257.02" r=".7552" style="stroke-width:.26458;stroke:#000"/>
 <circle cx="116.42" cy="223.01" r=".7552" style="stroke-width:.26458;stroke:#000"/>
 <circle cx="77.107" cy="225.27" r=".7552" style="stroke-width:.26458;stroke:#000"/>
 <circle cx="160.26" cy="262.32" r=".7552" style="stroke-width:.26458;stroke:#000"/>
 <circle cx="131.54" cy="198.06" r=".7552" style="fill:#fff"/>
 <circle cx="116.42" cy="87.69" r=".66709" style="fill:#fff;stroke-width:.26458;stroke:#000"/>
 <circle cx="143.63" cy="107.35" r=".66709" style="fill:#fff;stroke-width:.26458;stroke:#000"/>
</svg>
